<svg width="600" height="600" viewBox="0 0 600 600" fill="none" xmlns="http://www.w3.org/2000/svg">
<rect x="2.5" y="2.5" width="595" height="595" rx="27.5" fill="#E8E8E8"/>
<path d="M137.5 541V64C137.5 60.9624 139.962 58.5 143 58.5H458.5C461.538 58.5 464 60.9624 464 64V541" stroke="#22322A" stroke-width="5"/>
<rect x="281" y="67" width="44" height="6" rx="3" fill="#22322A"/>
<path d="M286.5 83C286.5 83 294.167 93 302.5 83C310.833 73 318.5 83 318.5 83" stroke="#22322A" stroke-width="3" stroke-linecap="round"/>
<rect x="156.5" y="112.5" width="288" height="173" rx="12" fill="#D3F5E4"/>
<rect x="156.5" y="112.5" width="288" height="173" rx="12" stroke="#22322A" stroke-width="3"/>
<rect x="177" y="133" width="82" height="10" rx="2" fill="#B2E6C9"/>
<rect x="177" y="157" width="223" height="12" rx="2" fill="#B2E6C9"/>
<rect x="177" y="179" width="186" height="12" rx="2" fill="#B2E6C9"/>
<rect x="177" y="201" width="223" height="12" rx="2" fill="#B2E6C9"/>
<rect x="177" y="223" width="166" height="12" rx="2" fill="#B2E6C9"/>
<rect x="177" y="245" width="82" height="12" rx="2" fill="#B2E6C9"/>
<path d="M125 369C125 340.925 148.425 317.5 176.5 317.5H233.5C236.261 317.5 238.5 319.739 238.5 322.5V470.5C238.5 473.261 236.261 475.5 233.5 475.5H176.5C148.425 475.5 125 452.075 125 424V369Z" fill="#FFA953"/>
<path d="M125 369C125 340.925 148.425 317.5 176.5 317.5H233.5C236.261 317.5 238.5 319.739 238.5 322.5V470.5C238.5 473.261 236.261 475.5 233.5 475.5H176.5C148.425 475.5 125 452.075 125 424V369Z" stroke="#22322A" stroke-width="3"/>
<path d="M475 369C475 340.925 451.575 317.5 423.5 317.5H366.5C363.739 317.5 361.5 319.739 361.5 322.5V470.5C361.5 473.261 363.739 475.5 366.5 475.5H423.5C451.575 475.5 475 452.075 475 424V369Z" fill="#FFA953"/>
<path d="M475 369C475 340.925 451.575 317.5 423.5 317.5H366.5C363.739 317.5 361.5 319.739 361.5 322.5V470.5C361.5 473.261 363.739 475.5 366.5 475.5H423.5C451.575 475.5 475 452.075 475 424V369Z" stroke="#22322A" stroke-width="3"/>
</svg>